<svg width="17" height="17" viewBox="0 0 17 17" fill="none" xmlns="http://www.w3.org/2000/svg">
<path opacity="0.3" d="M8.42667 0.00364859C8.38859 0.00995913 8.35052 0.0194237 8.31591 0.0288891C7.90402 0.114076 7.61328 0.451669 7.62366 0.836587L7.62366 14.2141L2.05799 9.14072C1.8434 8.9388 1.52842 8.85361 1.2273 8.91356C0.895017 8.9672 0.628502 9.18805 0.535048 9.48147C0.441595 9.77805 0.538509 10.0936 0.784257 10.3018L7.76211 16.6372C7.77942 16.6624 7.79672 16.6876 7.81749 16.7129L7.87287 16.7634C7.89018 16.7823 7.90748 16.7981 7.92825 16.8138C7.93863 16.8138 7.94556 16.8138 7.95594 16.8138C8.01478 16.8643 8.08054 16.9053 8.14977 16.9401C8.16015 16.9401 8.16707 16.9401 8.17746 16.9401C8.19476 16.9495 8.21553 16.959 8.23284 16.9653C8.24322 16.9653 8.25014 16.9653 8.26053 16.9653C8.28822 16.9748 8.31591 16.9842 8.3436 16.9905C8.43705 17.0032 8.52704 17.0032 8.6205 16.9905C8.6378 16.9905 8.65857 16.9905 8.67588 16.9905C8.75202 16.9748 8.82817 16.9495 8.8974 16.9148C9.01508 16.8612 9.11892 16.7823 9.20198 16.6876L16.2352 10.3018C16.5883 9.97997 16.5883 9.46254 16.2352 9.14072C15.8822 8.81891 15.3145 8.81891 14.9615 9.14072L9.39581 14.2141L9.39581 0.836587C9.4062 0.603112 9.30236 0.379102 9.11892 0.221348C8.93201 0.0604404 8.67934 -0.0184371 8.42667 0.00364859Z" fill="#1A1A1A"/>
</svg>
